<svg width="33" height="33" viewBox="0 0 33 33" fill="none" xmlns="http://www.w3.org/2000/svg">
<path d="M4.70117 8.29272H7.36784H28.7012" stroke="#f4f4f4" stroke-width="2" stroke-linecap="round" stroke-linejoin="round"/>
<path d="M11.3677 8.29281V5.62614C11.3677 4.9189 11.6486 4.24062 12.1487 3.74052C12.6488 3.24042 13.3271 2.95947 14.0343 2.95947H19.3677C20.0749 2.95947 20.7532 3.24042 21.2533 3.74052C21.7534 4.24062 22.0343 4.9189 22.0343 5.62614V8.29281M26.0343 8.29281V26.9595C26.0343 27.6667 25.7534 28.345 25.2533 28.8451C24.7532 29.3452 24.0749 29.6261 23.3677 29.6261H10.0343C9.3271 29.6261 8.64882 29.3452 8.14872 28.8451C7.64863 28.345 7.36768 27.6667 7.36768 26.9595V8.29281H26.0343Z" stroke="#f4f4f4" stroke-width="2" stroke-linecap="round" stroke-linejoin="round"/>
<path d="M14.0347 14.9595V22.9595" stroke="#f4f4f4" stroke-width="2" stroke-linecap="round" stroke-linejoin="round"/>
<path d="M19.3677 14.9595V22.9595" stroke="#f4f4f4" stroke-width="2" stroke-linecap="round" stroke-linejoin="round"/>
</svg>
